<?xml version="1.0" encoding="UTF-8"?>
<svg version="1.1" xmlns="http://www.w3.org/2000/svg" width="500" height="500">
<path d="M0 0 C8.46753464 4.51601847 16.4495947 8.82749998 24.50390625 13.875 C28.50940659 16.34635538 32.62653963 18.60786405 36.75 20.875 C42.54958231 24.0663784 48.30508122 27.31270763 54 30.6875 C64.46492345 36.88714618 75.01160322 42.94394929 85.55224609 49.01367188 C89.02159666 51.01244232 92.48961752 53.01349752 95.95703125 55.015625 C109.02527382 62.56649463 109.02527382 62.56649463 122.125 70.0625 C128.15147407 73.49670397 134.13772128 76.99798861 140.125 80.5 C149.11809676 85.75755756 158.14009426 90.96170142 167.1875 96.125 C167.78077087 96.46360046 168.37404175 96.80220093 168.98529053 97.15106201 C173.95373758 99.98608806 178.92400369 102.81791811 183.89501953 105.6484375 C195.21815532 112.09658998 206.50463669 118.60238885 217.74511719 125.19384766 C218.69032227 125.74733887 219.63552734 126.30083008 220.609375 126.87109375 C221.43405273 127.35505615 222.25873047 127.83901855 223.10839844 128.33764648 C227.04744413 130.60216541 231.02819574 132.79344208 235 135 C235 162.06 235 189.12 235 217 C226.19131184 212.30203298 217.6098248 207.64022286 209.11328125 202.46484375 C204.47632576 199.66540822 199.77123316 196.98887243 195.0625 194.3125 C187.38558634 189.94781442 179.74480596 185.52611122 172.125 181.0625 C163.18310208 175.82739111 154.18799718 170.69572085 145.15722656 165.61572266 C138.84012325 162.05649985 132.57239049 158.42439611 126.33447266 154.72851562 C120.89976229 151.5138709 115.42504205 148.37348136 109.9375 145.25 C99.26688771 139.17402316 88.65998839 132.99111891 78.06164551 126.79014587 C74.92386644 124.95548466 71.78455616 123.12346956 68.64477539 121.29223633 C67.58231094 120.67254471 66.5198465 120.05285309 65.42518616 119.41438293 C64.62487473 118.94763657 63.82456329 118.4808902 63 118 C62.99826375 118.54765642 62.9965275 119.09531284 62.99473864 119.65956491 C62.89181509 152.08444487 62.78372533 184.50930286 62.66888306 216.93414268 C62.65511271 220.82336386 62.64138573 224.7125852 62.62768555 228.60180664 C62.62495724 229.37611356 62.62222894 230.15042047 62.61941796 230.94819123 C62.57528666 243.50226847 62.53467246 256.05635477 62.49534739 268.61044788 C62.45494863 281.48243787 62.41079503 294.35441099 62.36312145 307.22637612 C62.33379982 315.17551145 62.30744246 323.12464545 62.28482103 331.07380272 C62.26719144 337.15885993 62.24434964 343.24388592 62.21950912 349.32891846 C62.21011712 351.83279396 62.20244965 354.33667658 62.19658089 356.84056282 C62.18835608 360.24277907 62.17408991 363.64491603 62.15821838 367.04710388 C62.15724028 368.05194665 62.15626217 369.05678942 62.15525442 370.09208196 C62.14977998 370.99627247 62.14430554 371.90046297 62.1386652 372.83205318 C62.13600716 373.61845399 62.13334911 374.40485479 62.13061053 375.21508592 C62 377 62 377 61 378 C40.87 378 20.74 378 0 378 C0 253.26 0 128.52 0 0 Z " fill="#FE0776" transform="translate(74,37)"/>
<path d="M0 0 C20.13 0 40.26 0 61 0 C61 124.41 61 248.82 61 377 C57.11538563 375.44615425 53.82814443 373.86235312 50.23046875 371.796875 C49.10705078 371.15363281 47.98363281 370.51039063 46.82617188 369.84765625 C45.61321505 369.14855234 44.40032616 368.44933056 43.1875 367.75 C41.92393897 367.02454649 40.66026552 366.29928874 39.39648438 365.57421875 C30.60068817 360.52219693 21.83620262 355.4170285 13.08276367 350.29199219 C5.41756602 345.80992366 -2.28527105 341.39596222 -10 337 C-19.72124506 331.46014067 -29.40894868 325.86625068 -39.06689453 320.21655273 C-49.59084625 314.06233258 -60.15380137 307.97630004 -70.71777344 301.89111328 C-76.14659942 298.76319852 -81.57319281 295.63141552 -87 292.5 C-89.16665583 291.24998121 -91.3333225 289.99998122 -93.5 288.75 C-100 285 -100 285 -106.5 281.25 C-108.1092334 280.3216333 -108.1092334 280.3216333 -109.75097656 279.37451172 C-111.91447476 278.12628966 -114.07788643 276.87791761 -116.24121094 275.62939453 C-121.70565017 272.47594744 -127.17163645 269.32523904 -132.640625 266.1796875 C-134.30158203 265.22352539 -134.30158203 265.22352539 -135.99609375 264.24804688 C-138.04498654 263.0686422 -140.09439311 261.89012919 -142.14453125 260.71289062 C-144.17785306 259.54190303 -146.1857542 258.32607695 -148.17138672 257.07592773 C-151.21775717 255.26909555 -154.28540214 254.20490938 -157.64501953 253.09790039 C-164.27666579 250.58942846 -169.88609761 247.97170579 -174 242 C-178.11599024 230.18015275 -176.150647 215.81212897 -175.51062012 203.55883789 C-175.28399492 198.76074801 -175.18477137 193.96012109 -175.07421875 189.15820312 C-174.83946947 179.76542748 -174.46499441 170.38400128 -174 161 C-170.2008356 161.69029123 -167.50240761 162.64691437 -164.17578125 164.6328125 C-163.24330566 165.18380615 -162.31083008 165.7347998 -161.35009766 166.30249023 C-160.34769043 166.90391846 -159.3452832 167.50534668 -158.3125 168.125 C-156.13974019 169.41086159 -153.96654843 170.69599352 -151.79296875 171.98046875 C-150.67067871 172.6461084 -149.54838867 173.31174805 -148.39208984 173.99755859 C-142.99305852 177.18475126 -137.5594716 180.31124675 -132.125 183.4375 C-129.94005632 184.69653156 -127.75516075 185.95564661 -125.5703125 187.21484375 C-123.94270996 188.15239502 -123.94270996 188.15239502 -122.28222656 189.10888672 C-116.85340058 192.23680148 -111.42680719 195.36858448 -106 198.5 C-103.83334417 199.75001879 -101.6666775 201.00001878 -99.5 202.25 C-60.5 224.75 -60.5 224.75 -57.24707031 226.62670898 C-55.09019097 227.87104998 -52.93329008 229.11535364 -50.77636719 230.35961914 C-45.79008782 233.2361158 -40.8039929 236.11293001 -35.81872559 238.99118042 C-34.08363272 239.99291394 -32.34846743 240.99452189 -30.61328125 241.99609375 C-28.45949332 243.23933719 -26.30583529 244.48280572 -24.15234375 245.7265625 C-16.44747491 250.17360093 -8.72422105 254.5861594 -1 259 C-0.67 173.53 -0.34 88.06 0 0 Z " fill="#FEFEFE" transform="translate(365,86)"/>
</svg>
